<?xml version="1.0" encoding="UTF-8" standalone="no"?>
<!DOCTYPE svg PUBLIC "-//W3C//DTD SVG 1.1//EN" "http://www.w3.org/Graphics/SVG/1.1/DTD/svg11.dtd">
<svg width="100%" height="100%" viewBox="0 0 310 127" version="1.1" xmlns="http://www.w3.org/2000/svg" xmlns:xlink="http://www.w3.org/1999/xlink" xml:space="preserve" xmlns:serif="http://www.serif.com/" style="fill-rule:evenodd;clip-rule:evenodd;stroke-linejoin:round;stroke-miterlimit:2;">
    <path id="XMLID_27_" d="M79.83,87.93C79.83,109.98 63.807,127 44.367,127C34.438,127 27.219,123.658 22.258,118.017L22.258,121.228C22.258,123.271 20.597,124.928 18.549,124.928L3.709,124.928C1.66,124.928 0,123.271 0,121.228L0,3.7C0,1.656 1.661,0 3.709,0C13.953,0 22.256,10.396 22.256,20.612L22.256,57.846C27.217,52.204 34.437,48.863 44.365,48.863C63.806,48.863 79.83,65.881 79.83,87.93ZM57.573,87.93C57.573,76.831 50.154,69.875 39.915,69.875C29.676,69.875 22.257,76.831 22.257,87.93C22.257,99.029 29.676,105.986 39.915,105.986C50.154,105.986 57.573,99.029 57.573,87.93Z" style="fill:rgb(1,156,222);fill-rule:nonzero;"/>
    <g id="XMLID_3_">
        <g id="XMLID_6_" transform="matrix(1.62433,0,0,1.43504,-380.874,0.10278)">
            <path d="M255.6,37.528L255.6,33.552C255.6,32.899 255.8,32.354 256.25,31.864L267.258,19.773C269.21,17.594 270.911,14.925 270.911,12.529C270.911,9.968 269.71,8.498 267.459,8.498C265.357,8.498 264.106,9.424 263.706,11.439C263.556,12.31 263.155,12.745 262.405,12.745L256.85,12.745C256.049,12.745 255.599,12.256 255.649,11.329C256.25,3.432 261.705,0 267.258,0C273.113,0 278.918,3.812 278.918,12.528C278.918,16.721 276.565,21.079 273.714,24.129L267.659,30.502L278.167,30.502C278.968,30.502 279.418,30.992 279.418,31.863L279.418,37.528C279.418,38.399 278.968,38.89 278.167,38.89L256.851,38.89C256.05,38.89 255.6,38.399 255.6,37.528Z" style="fill:rgb(254,116,108);fill-rule:nonzero;"/>
        </g>
        <g id="XMLID_4_" transform="matrix(1.62433,0,0,1.43504,-380.874,0.10278)">
            <path d="M310,25.833L310,31.277C310,32.166 309.54,32.666 308.724,32.666L306.427,32.666L306.427,37.5C306.427,38.389 305.968,38.889 305.152,38.889L299.435,38.889C298.619,38.889 298.159,38.389 298.159,37.5L298.159,32.667L282.694,32.667C281.878,32.667 281.419,32.167 281.419,31.278L281.419,25.333C281.419,24.722 281.521,24.222 281.775,23.611L292.341,1C292.647,0.333 293.106,0 293.82,0L299.895,0C300.864,0 301.272,0.667 300.813,1.667L290.197,24.445L298.159,24.445L298.159,17.5C298.159,16.611 298.619,16.111 299.435,16.111L305.152,16.111C305.968,16.111 306.427,16.611 306.427,17.5L306.427,24.444L308.724,24.444C309.541,24.444 310,24.945 310,25.833Z" style="fill:rgb(254,116,108);fill-rule:nonzero;"/>
        </g>
    </g>
</svg>
